<svg width="28" height="28" viewBox="0 0 28 28" fill="none" xmlns="http://www.w3.org/2000/svg">
<g clip-path="url(#clip0_266_7552)">
<path d="M22.3027 5.81438L22.3026 5.81442L20.5098 7.60736C20.3139 7.8032 19.9842 7.80709 19.7729 7.60482C19.5875 7.41646 19.5804 7.08829 19.7786 6.88168L21.5771 5.08319C21.7836 4.88503 22.1117 4.89212 22.3 5.07753C22.4987 5.28519 22.4905 5.62661 22.3027 5.81438ZM19.7766 20.546L19.7755 20.5448C19.5893 20.3587 19.5796 20.0331 19.7729 19.8253C19.9814 19.6374 20.3133 19.6459 20.5013 19.8256L22.3026 21.627C22.4897 21.814 22.4986 22.1417 22.3027 22.3493C22.1063 22.5341 21.7743 22.5383 21.5744 22.3554L19.7766 20.546ZM7.56051 20.5448L7.55936 20.546L5.77337 22.3437C5.57405 22.5259 5.233 22.5223 5.03594 22.3402C4.84818 22.1316 4.8581 21.8021 5.04495 21.6153L4.69141 21.2617L5.04496 21.6153L6.8347 19.8256C7.02178 19.6467 7.36278 19.6374 7.57196 19.8227C7.7572 20.0315 7.74656 20.3588 7.56051 20.5448ZM7.56599 7.60199L7.56582 7.60215C7.35859 7.80329 7.02706 7.79599 6.8384 7.60785C6.83825 7.6077 6.83809 7.60755 6.83794 7.60739L5.04612 5.80385L5.04496 5.8027C4.87252 5.63025 4.85705 5.28898 5.05926 5.07755C5.24383 4.8961 5.58287 4.89286 5.78196 5.08284L7.56856 6.88112C7.756 7.07661 7.74731 7.42616 7.56599 7.60199ZM14.1875 4.53906C14.1875 4.82919 13.9506 5.05859 13.6797 5.05859C13.3934 5.05859 13.1602 4.82544 13.1602 4.53906V2.01953C13.1602 1.73315 13.3934 1.5 13.6797 1.5C13.9506 1.5 14.1875 1.7294 14.1875 2.01953V4.53906ZM22.8203 14.2227C22.5382 14.2227 22.3008 13.9821 22.3008 13.7148C22.3008 13.4402 22.5457 13.1953 22.8203 13.1953H25.3398C25.607 13.1953 25.8477 13.4328 25.8477 13.7148C25.8477 13.9895 25.6145 14.2227 25.3398 14.2227H22.8203ZM13.1602 22.8789C13.1602 22.608 13.3896 22.3711 13.6797 22.3711C13.9544 22.3711 14.1875 22.6042 14.1875 22.8789V25.4102C14.1875 25.6848 13.9543 25.918 13.6797 25.918C13.3896 25.918 13.1602 25.681 13.1602 25.4102V22.8789ZM4.52734 13.1953C4.80198 13.1953 5.04688 13.4402 5.04688 13.7148C5.04688 13.982 4.80944 14.2227 4.52734 14.2227H2.00781C1.73322 14.2227 1.5 13.9895 1.5 13.7148C1.5 13.4327 1.74063 13.1953 2.00781 13.1953H4.52734Z" fill="black" fill-opacity="0.85" stroke="white"/>
<path d="M19.1328 13.7148C19.1328 16.7089 16.649 19.1914 13.668 19.1914C10.6869 19.1914 8.20312 16.7089 8.20312 13.7148C8.20312 10.7085 10.6876 8.22656 13.668 8.22656C16.6484 8.22656 19.1328 10.7085 19.1328 13.7148ZM8.98438 13.7148C8.98438 16.2761 11.1067 18.3984 13.668 18.3984C16.2292 18.3984 18.3516 16.2762 18.3516 13.7148C18.3516 11.1428 16.2301 9.01953 13.668 9.01953C11.1058 9.01953 8.98438 11.1428 8.98438 13.7148Z" fill="black" fill-opacity="0.85" stroke="white"/>
</g>
<defs>
<clipPath id="clip0_266_7552">
<rect width="25.3477" height="25.4414" fill="white" transform="translate(1 1)"/>
</clipPath>
</defs>
</svg>
