<svg width="84" height="48" viewBox="0 0 84 48" fill="none" xmlns="http://www.w3.org/2000/svg">
<path d="M4.53835 19L0.37642 4.45455H3.7358L6.14347 14.5611H6.2642L8.92045 4.45455H11.7969L14.446 14.5824H14.5739L16.9815 4.45455H20.3409L16.179 19H13.1818L10.4119 9.49006H10.2983L7.53551 19H4.53835ZM25.7298 19.2131C24.6076 19.2131 23.6417 18.9858 22.832 18.5312C22.0271 18.072 21.4068 17.4233 20.9712 16.5852C20.5356 15.7424 20.3178 14.7457 20.3178 13.5952C20.3178 12.473 20.5356 11.4882 20.9712 10.6406C21.4068 9.79309 22.02 9.13258 22.8107 8.65909C23.6062 8.18561 24.5389 7.94886 25.609 7.94886C26.3287 7.94886 26.9987 8.06487 27.619 8.29688C28.244 8.52415 28.7885 8.86742 29.2525 9.3267C29.7212 9.78598 30.0858 10.3636 30.3462 11.0597C30.6067 11.7509 30.7369 12.5606 30.7369 13.4886V14.3196H21.5252V12.4446H27.8888C27.8888 12.009 27.7942 11.6231 27.6048 11.2869C27.4154 10.9508 27.1526 10.688 26.8164 10.4986C26.485 10.3045 26.0991 10.2074 25.6587 10.2074C25.1995 10.2074 24.7923 10.3139 24.4371 10.527C24.0868 10.7353 23.8121 11.017 23.6133 11.3722C23.4144 11.7225 23.3126 12.1132 23.3079 12.544V14.3267C23.3079 14.8665 23.4073 15.3329 23.6062 15.7259C23.8098 16.1188 24.0962 16.4219 24.4656 16.6349C24.8349 16.848 25.2728 16.9545 25.7795 16.9545C26.1156 16.9545 26.4234 16.9072 26.7028 16.8125C26.9821 16.7178 27.2212 16.5758 27.4201 16.3864C27.619 16.197 27.7705 15.965 27.8746 15.6903L30.6729 15.875C30.5309 16.5473 30.2397 17.1345 29.7994 17.6364C29.3638 18.1335 28.8003 18.5218 28.109 18.8011C27.4225 19.0758 26.6294 19.2131 25.7298 19.2131ZM35.8221 19.206C35.1261 19.206 34.5058 19.0852 33.9613 18.8438C33.4168 18.5975 32.9859 18.2353 32.6687 17.7571C32.3562 17.2741 32.1999 16.6728 32.1999 15.9531C32.1999 15.3471 32.3112 14.8381 32.5337 14.4261C32.7563 14.0142 33.0593 13.6828 33.4428 13.4318C33.8263 13.1809 34.262 12.9915 34.7496 12.8636C35.2421 12.7358 35.7582 12.6458 36.2979 12.5938C36.9324 12.5275 37.4438 12.4659 37.832 12.4091C38.2203 12.3475 38.502 12.2576 38.6772 12.1392C38.8524 12.0208 38.94 11.8456 38.94 11.6136V11.571C38.94 11.1212 38.7979 10.7732 38.5138 10.527C38.2345 10.2808 37.8368 10.1577 37.3207 10.1577C36.7762 10.1577 36.3429 10.2784 36.021 10.5199C35.699 10.7566 35.4859 11.0549 35.3817 11.4148L32.5835 11.1875C32.7255 10.5246 33.0049 9.9517 33.4215 9.46875C33.8382 8.98106 34.3756 8.60701 35.0337 8.34659C35.6966 8.08144 36.4637 7.94886 37.3349 7.94886C37.9409 7.94886 38.521 8.01989 39.0749 8.16193C39.6336 8.30398 40.1284 8.52415 40.5593 8.82244C40.9949 9.12074 41.3382 9.50426 41.5891 9.97301C41.8401 10.437 41.9656 10.9934 41.9656 11.642V19H39.0962V17.4872H39.011C38.8358 17.8281 38.6014 18.1288 38.3079 18.3892C38.0143 18.6449 37.6616 18.8461 37.2496 18.9929C36.8377 19.1349 36.3619 19.206 35.8221 19.206ZM36.6886 17.1179C37.1336 17.1179 37.5266 17.0303 37.8675 16.8551C38.2085 16.6752 38.476 16.4337 38.6701 16.1307C38.8642 15.8277 38.9613 15.4844 38.9613 15.1009V13.9432C38.8666 14.0047 38.7364 14.0616 38.5707 14.1136C38.4097 14.161 38.2274 14.206 38.0238 14.2486C37.8202 14.2865 37.6166 14.322 37.413 14.3551C37.2094 14.3835 37.0247 14.4096 36.859 14.4332C36.5039 14.4853 36.1938 14.5682 35.9286 14.6818C35.6635 14.7955 35.4575 14.9493 35.3107 15.1435C35.1639 15.3329 35.0906 15.5696 35.0906 15.8537C35.0906 16.2656 35.2397 16.5805 35.538 16.7983C35.841 17.0114 36.2246 17.1179 36.6886 17.1179ZM50.1154 8.09091V10.3636H43.5458V8.09091H50.1154ZM45.0373 5.47727H48.0629V15.6477C48.0629 15.9271 48.1055 16.1449 48.1907 16.3011C48.2759 16.4527 48.3943 16.5592 48.5458 16.6207C48.7021 16.6823 48.882 16.7131 49.0856 16.7131C49.2276 16.7131 49.3697 16.7012 49.5117 16.6776C49.6538 16.6491 49.7627 16.6278 49.8384 16.6136L50.3143 18.8651C50.1628 18.9124 49.9497 18.9669 49.6751 19.0284C49.4004 19.0947 49.0666 19.1349 48.6737 19.1491C47.9445 19.1776 47.3053 19.0805 46.756 18.858C46.2115 18.6354 45.7878 18.2898 45.4847 17.821C45.1817 17.3523 45.0326 16.7604 45.0373 16.0455V5.47727ZM55.3462 12.6932V19H52.3207V4.45455H55.261V10.0156H55.3888C55.6351 9.37169 56.0328 8.86742 56.582 8.50284C57.1313 8.13352 57.8202 7.94886 58.6488 7.94886C59.4064 7.94886 60.0669 8.11458 60.6303 8.44602C61.1985 8.77273 61.6388 9.24384 61.9513 9.85938C62.2686 10.4702 62.4248 11.2017 62.4201 12.054V19H59.3945V12.5938C59.3993 11.9214 59.2288 11.3982 58.8832 11.0241C58.5423 10.6501 58.064 10.4631 57.4485 10.4631C57.0366 10.4631 56.672 10.5507 56.3548 10.7259C56.0423 10.901 55.796 11.1567 55.6161 11.4929C55.4409 11.8243 55.351 12.2244 55.3462 12.6932ZM69.7727 19.2131C68.6506 19.2131 67.6847 18.9858 66.875 18.5312C66.0701 18.072 65.4498 17.4233 65.0142 16.5852C64.5786 15.7424 64.3608 14.7457 64.3608 13.5952C64.3608 12.473 64.5786 11.4882 65.0142 10.6406C65.4498 9.79309 66.063 9.13258 66.8537 8.65909C67.6491 8.18561 68.5819 7.94886 69.652 7.94886C70.3717 7.94886 71.0417 8.06487 71.6619 8.29688C72.2869 8.52415 72.8314 8.86742 73.2955 9.3267C73.7642 9.78598 74.1288 10.3636 74.3892 11.0597C74.6496 11.7509 74.7798 12.5606 74.7798 13.4886V14.3196H65.5682V12.4446H71.9318C71.9318 12.009 71.8371 11.6231 71.6477 11.2869C71.4583 10.9508 71.1955 10.688 70.8594 10.4986C70.5279 10.3045 70.142 10.2074 69.7017 10.2074C69.2424 10.2074 68.8352 10.3139 68.4801 10.527C68.1297 10.7353 67.8551 11.017 67.6562 11.3722C67.4574 11.7225 67.3556 12.1132 67.3509 12.544V14.3267C67.3509 14.8665 67.4503 15.3329 67.6491 15.7259C67.8527 16.1188 68.1392 16.4219 68.5085 16.6349C68.8778 16.848 69.3158 16.9545 69.8224 16.9545C70.1586 16.9545 70.4664 16.9072 70.7457 16.8125C71.0251 16.7178 71.2642 16.5758 71.4631 16.3864C71.6619 16.197 71.8134 15.965 71.9176 15.6903L74.7159 15.875C74.5739 16.5473 74.2827 17.1345 73.8423 17.6364C73.4067 18.1335 72.8433 18.5218 72.152 18.8011C71.4654 19.0758 70.6723 19.2131 69.7727 19.2131ZM76.7543 19V8.09091H79.6875V9.99432H79.8011C80 9.31723 80.3338 8.80587 80.8026 8.46023C81.2713 8.10985 81.8111 7.93466 82.4219 7.93466C82.5734 7.93466 82.7367 7.94413 82.9119 7.96307C83.0871 7.98201 83.241 8.00805 83.3736 8.04119V10.7259C83.2315 10.6832 83.035 10.6454 82.7841 10.6122C82.5331 10.5791 82.3035 10.5625 82.0952 10.5625C81.6501 10.5625 81.2524 10.6596 80.902 10.8537C80.5563 11.0431 80.2817 11.3082 80.0781 11.6491C79.8793 11.9901 79.7798 12.383 79.7798 12.8281V19H76.7543ZM9.15483 32.6378C9.09801 32.0649 8.85417 31.6198 8.4233 31.3026C7.99242 30.9853 7.40767 30.8267 6.66903 30.8267C6.16714 30.8267 5.74337 30.8977 5.39773 31.0398C5.05208 31.1771 4.78693 31.3688 4.60227 31.6151C4.42235 31.8613 4.33239 32.1406 4.33239 32.4531C4.32292 32.7135 4.37737 32.9408 4.49574 33.1349C4.61884 33.3291 4.78693 33.4972 5 33.6392C5.21307 33.7765 5.45928 33.8973 5.73864 34.0014C6.01799 34.1009 6.31629 34.1861 6.63352 34.2571L7.94034 34.5696C8.57481 34.7116 9.1572 34.901 9.6875 35.1378C10.2178 35.3745 10.6771 35.6657 11.0653 36.0114C11.4536 36.357 11.7543 36.7642 11.9673 37.233C12.1851 37.7017 12.2964 38.2391 12.3011 38.8452C12.2964 39.7353 12.0691 40.5071 11.6193 41.1605C11.1742 41.8092 10.5303 42.3134 9.6875 42.6733C8.84943 43.0284 7.83854 43.206 6.65483 43.206C5.48059 43.206 4.45786 43.026 3.58665 42.6662C2.72017 42.3063 2.04309 41.7737 1.5554 41.0682C1.07244 40.358 0.819129 39.4796 0.795455 38.4332H3.77131C3.80445 38.9209 3.94413 39.3281 4.19034 39.6548C4.44129 39.9768 4.77509 40.2206 5.19176 40.3864C5.61316 40.5473 6.08902 40.6278 6.61932 40.6278C7.14015 40.6278 7.59233 40.5521 7.97585 40.4006C8.36411 40.2491 8.66477 40.0384 8.87784 39.7685C9.09091 39.4986 9.19744 39.1884 9.19744 38.8381C9.19744 38.5114 9.10038 38.2367 8.90625 38.0142C8.71686 37.7917 8.4375 37.6023 8.06818 37.446C7.7036 37.2898 7.25616 37.1477 6.72585 37.0199L5.14205 36.6222C3.91572 36.3239 2.94744 35.8575 2.23722 35.223C1.52699 34.5885 1.17424 33.7339 1.17898 32.6591C1.17424 31.7784 1.40862 31.009 1.8821 30.3509C2.36032 29.6927 3.0161 29.179 3.84943 28.8097C4.68277 28.4403 5.62973 28.2557 6.69034 28.2557C7.76989 28.2557 8.71212 28.4403 9.51705 28.8097C10.3267 29.179 10.9564 29.6927 11.4062 30.3509C11.8561 31.009 12.0881 31.7713 12.1023 32.6378H9.15483ZM14.3129 43V32.0909H17.3384V43H14.3129ZM15.8327 30.6847C15.3829 30.6847 14.997 30.5355 14.6751 30.2372C14.3578 29.9342 14.1992 29.572 14.1992 29.1506C14.1992 28.7339 14.3578 28.3764 14.6751 28.0781C14.997 27.7751 15.3829 27.6236 15.8327 27.6236C16.2826 27.6236 16.6661 27.7751 16.9833 28.0781C17.3053 28.3764 17.4663 28.7339 17.4663 29.1506C17.4663 29.572 17.3053 29.9342 16.9833 30.2372C16.6661 30.5355 16.2826 30.6847 15.8327 30.6847ZM25.5646 32.0909V34.3636H18.995V32.0909H25.5646ZM20.4865 29.4773H23.5121V39.6477C23.5121 39.9271 23.5547 40.1449 23.6399 40.3011C23.7251 40.4527 23.8435 40.5592 23.995 40.6207C24.1513 40.6823 24.3312 40.7131 24.5348 40.7131C24.6768 40.7131 24.8189 40.7012 24.9609 40.6776C25.103 40.6491 25.2119 40.6278 25.2876 40.6136L25.7635 42.8651C25.612 42.9124 25.3989 42.9669 25.1243 43.0284C24.8497 43.0947 24.5159 43.1349 24.1229 43.1491C23.3937 43.1776 22.7545 43.0805 22.2053 42.858C21.6607 42.6354 21.237 42.2898 20.9339 41.821C20.6309 41.3523 20.4818 40.7604 20.4865 40.0455V29.4773ZM32.3899 43.2131C31.2678 43.2131 30.3018 42.9858 29.4922 42.5312C28.6873 42.072 28.067 41.4233 27.6314 40.5852C27.1958 39.7424 26.978 38.7457 26.978 37.5952C26.978 36.473 27.1958 35.4882 27.6314 34.6406C28.067 33.7931 28.6802 33.1326 29.4709 32.6591C30.2663 32.1856 31.1991 31.9489 32.2692 31.9489C32.9889 31.9489 33.6589 32.0649 34.2791 32.2969C34.9041 32.5241 35.4486 32.8674 35.9126 33.3267C36.3814 33.786 36.746 34.3636 37.0064 35.0597C37.2668 35.7509 37.397 36.5606 37.397 37.4886V38.3196H28.1854V36.4446H34.549C34.549 36.009 34.4543 35.6231 34.2649 35.2869C34.0755 34.9508 33.8127 34.688 33.4766 34.4986C33.1451 34.3045 32.7592 34.2074 32.3189 34.2074C31.8596 34.2074 31.4524 34.3139 31.0973 34.527C30.7469 34.7353 30.4723 35.017 30.2734 35.3722C30.0746 35.7225 29.9728 36.1132 29.968 36.544V38.3267C29.968 38.8665 30.0675 39.3329 30.2663 39.7259C30.4699 40.1188 30.7564 40.4219 31.1257 40.6349C31.495 40.848 31.933 40.9545 32.4396 40.9545C32.7758 40.9545 33.0836 40.9072 33.3629 40.8125C33.6423 40.7178 33.8814 40.5758 34.0803 40.3864C34.2791 40.197 34.4306 39.965 34.5348 39.6903L37.3331 39.875C37.1911 40.5473 36.8999 41.1345 36.4595 41.6364C36.0239 42.1335 35.4605 42.5218 34.7692 42.8011C34.0826 43.0758 33.2895 43.2131 32.3899 43.2131Z" fill="white"/>
</svg>
