<svg width="28" height="28" viewBox="0 0 28 28" fill="none" xmlns="http://www.w3.org/2000/svg">
<g clip-path="url(#clip0_266_7555)">
<path d="M18.8596 26.6517L22.3283 20.6517C22.5275 20.3002 22.4221 19.9017 22.0822 19.7025C21.7541 19.4916 21.3322 19.597 21.1213 19.9603L17.676 25.9369C17.4768 26.2884 17.5822 26.6986 17.9221 26.9095C18.2619 27.1087 18.6604 27.0033 18.8596 26.6517Z" fill="white"/>
<path d="M16.1406 23.3123L17.6641 20.6638C17.875 20.3123 17.7578 19.9021 17.4062 19.6912C17.0547 19.492 16.6562 19.5974 16.4453 19.9607L14.9102 22.6326C14.7109 22.9607 14.8047 23.3709 15.168 23.5818C15.5195 23.781 15.9414 23.6521 16.1406 23.3123Z" fill="white"/>
<path d="M9.54297 26.6634L13 20.6634C13.1992 20.3119 13.1055 19.9134 12.7656 19.7142C12.4258 19.5033 11.9922 19.6087 11.793 19.972L8.35938 25.9486C8.16016 26.3002 8.25391 26.7103 8.60547 26.9212C8.94531 27.1205 9.34375 27.0033 9.54297 26.6634Z" fill="white"/>
<path d="M6.81229 23.324L8.33573 20.6756C8.55838 20.324 8.4412 19.9138 8.08963 19.7029C7.73807 19.5037 7.33963 19.6091 7.11698 19.9724L5.58182 22.6443C5.3826 22.9724 5.48807 23.3826 5.85135 23.5935C6.1912 23.7927 6.61307 23.6638 6.81229 23.324Z" fill="white"/>
<path d="M6.50781 17.8398H21.0508C24.8945 17.8398 27.7539 14.9218 27.7539 11.3125C27.7539 7.57422 24.707 4.84375 20.7344 4.84375C19.2695 1.94922 16.5508 0.0859375 13.1641 0.0859375C8.75781 0.0859375 5.125 3.54297 4.73828 7.89063C2.61719 8.51172 1 10.3515 1 12.8242C1 15.6015 3.01562 17.8398 6.50781 17.8398ZM6.48438 15.9648C4.08203 15.9648 2.875 14.6172 2.875 12.8828C2.875 11.4765 3.69531 10.2109 5.6875 9.68359C6.33203 9.50781 6.56641 9.20313 6.625 8.54688C6.89453 4.71484 9.76562 1.96094 13.1641 1.96094C15.8008 1.96094 17.875 3.41406 19.1406 6.00391C19.4102 6.57813 19.7617 6.77734 20.4531 6.77734C23.9219 6.77734 25.8789 8.86328 25.8789 11.3593C25.8789 13.914 23.8398 15.9648 21.168 15.9648H6.48438Z" fill="white"/>
</g>
<defs>
<clipPath id="clip0_266_7555">
<rect width="26.7539" height="27.0187" fill="white" transform="translate(1)"/>
</clipPath>
</defs>
</svg>
