<svg width="25" height="32" viewBox="0 0 25 32" fill="none" xmlns="http://www.w3.org/2000/svg">
<path d="M13.2517 16.6707C16.2441 16.6707 18.6272 14.2768 18.6272 11.2843C18.6272 8.28097 16.2441 5.88699 13.2517 5.88699C10.2592 5.88699 7.86523 8.28097 7.86523 11.2843C7.86523 14.2768 10.2592 16.6707 13.2517 16.6707ZM13.2517 15.0712C11.1297 15.0712 9.46484 13.4171 9.46484 11.2843C9.46484 9.14062 11.1297 7.48661 13.2517 7.48661C15.3736 7.48661 17.0276 9.14062 17.0276 11.2843C17.0276 13.4171 15.3736 15.0712 13.2517 15.0712ZM13.2517 4.15681C13.7522 4.15681 14.1548 3.7433 14.1548 3.25363V0.903181C14.1548 0.402623 13.7522 0 13.2517 0C12.7511 0 12.3485 0.402623 12.3485 0.903181V3.25363C12.3485 3.7433 12.7511 4.15681 13.2517 4.15681ZM18.279 6.25697C18.6163 6.60519 19.2039 6.61607 19.5631 6.25697L21.2171 4.58119C21.5761 4.23298 21.5653 3.65625 21.2171 3.30804C20.8797 2.95982 20.3139 2.95982 19.9548 3.30804L18.279 4.9947C17.9308 5.34292 17.9417 5.90876 18.279 6.25697ZM20.3465 11.2843C20.3465 11.774 20.76 12.1875 21.2497 12.1875H23.6001C24.0899 12.1875 24.4925 11.774 24.4925 11.2843C24.4925 10.7838 24.0899 10.3811 23.6001 10.3811H21.2497C20.76 10.3811 20.3465 10.7838 20.3465 11.2843ZM18.279 16.3225C17.9308 16.6707 17.9308 17.2475 18.279 17.5957L19.9548 19.2715C20.3139 19.6197 20.8797 19.6088 21.2171 19.2606C21.5653 18.9124 21.5761 18.3357 21.2171 17.9983L19.5413 16.3225C19.1931 15.9852 18.6272 15.9743 18.279 16.3225Z" fill="white"/>
<path d="M6.07212 28.0317C9.20605 28.0317 11.7415 25.4853 11.7415 22.3514C11.7415 20.6974 11.0669 19.2502 9.761 18.0749C9.53248 17.8573 9.47807 17.7376 9.47807 17.4111L9.48902 7.57408C9.48902 5.36509 8.09612 3.85254 6.07212 3.85254C4.02637 3.85254 2.62263 5.36509 2.62263 7.57408L2.63351 17.4111C2.63351 17.7376 2.58998 17.8573 2.35059 18.0749C1.05566 19.2502 0.370117 20.6974 0.370117 22.3514C0.370117 25.4853 2.91643 28.0317 6.07212 28.0317ZM6.07212 26.4538C3.79785 26.4538 1.96972 24.6039 1.96972 22.3514C1.96972 20.9912 2.61175 19.7615 3.76521 18.989C4.10254 18.7604 4.23312 18.5537 4.23312 18.1076V7.63936C4.23312 6.33356 4.98396 5.45214 6.07212 5.45214C7.13853 5.45214 7.88936 6.33356 7.88936 7.63936V18.1076C7.88936 18.5537 8.01995 18.7604 8.35728 18.989C9.51075 19.7615 10.1528 20.9912 10.1528 22.3514C10.1528 24.6039 8.31375 26.4538 6.07212 26.4538Z" fill="white"/>
<path d="M6.0611 24.9852C7.51925 24.9852 8.69447 23.7991 8.69447 22.341C8.69447 21.318 8.11774 20.4802 7.27985 20.0232C6.93163 19.8382 6.81194 19.7076 6.81194 19.1743V8.56473C6.81194 8.04241 6.47461 7.70508 6.0611 7.70508C5.63671 7.70508 5.31026 8.04241 5.31026 8.56473V19.1743C5.31026 19.7076 5.19056 19.8382 4.84235 20.0232C4.00446 20.4802 3.42773 21.318 3.42773 22.341C3.42773 23.81 4.60295 24.9852 6.0611 24.9852Z" fill="white"/>
</svg>
