<svg width="21" height="25" viewBox="0 0 21 25" fill="none" xmlns="http://www.w3.org/2000/svg">
<path d="M5.70201 24.1791C8.83593 24.1791 11.3713 21.6328 11.3713 18.4989C11.3713 16.8449 10.6967 15.3976 9.39089 14.2223C9.16236 14.0048 9.10795 13.8851 9.10795 13.5586L9.11891 3.72154C9.11891 1.51255 7.726 0 5.70201 0C3.65625 0 2.25251 1.51255 2.25251 3.72154L2.26339 13.5586C2.26339 13.8851 2.21986 14.0048 1.98047 14.2223C0.685548 15.3976 0 16.8449 0 18.4989C0 21.6328 2.54631 24.1791 5.70201 24.1791ZM5.70201 22.6013C3.42773 22.6013 1.59961 20.7514 1.59961 18.4989C1.59961 17.1387 2.24163 15.909 3.39509 15.1364C3.73242 14.9079 3.863 14.7012 3.863 14.255V3.78683C3.863 2.48102 4.61384 1.5996 5.70201 1.5996C6.76841 1.5996 7.51925 2.48102 7.51925 3.78683V14.255C7.51925 14.7012 7.64983 14.9079 7.98716 15.1364C9.14064 15.909 9.78265 17.1387 9.78265 18.4989C9.78265 20.7514 7.94363 22.6013 5.70201 22.6013Z" fill="white"/>
<path d="M5.69098 21.1316C7.14913 21.1316 8.32435 19.9456 8.32435 18.4874C8.32435 17.4645 7.74763 16.6267 6.90973 16.1696C6.56152 15.9847 6.44182 15.8541 6.44182 15.3208V4.71122C6.44182 4.18889 6.10449 3.85156 5.69098 3.85156C5.2666 3.85156 4.94015 4.18889 4.94015 4.71122V15.3208C4.94015 15.8541 4.82044 15.9847 4.47223 16.1696C3.63434 16.6267 3.05762 17.4645 3.05762 18.4874C3.05762 19.9564 4.23284 21.1316 5.69098 21.1316Z" fill="white"/>
<path d="M20.3717 11.9389L19.1061 11.213L20.2321 10.5616C20.474 10.422 20.5671 10.1428 20.4369 9.91015C20.2973 9.65889 20.0088 9.62164 19.7482 9.77054L18.1662 10.6733L15.393 9.10053L18.194 7.51849L19.7761 8.43049C20.0273 8.57939 20.3066 8.53286 20.4647 8.2909C20.5858 8.04894 20.4927 7.76976 20.26 7.63948L19.134 6.98805L20.381 6.28079C20.6695 6.11328 20.7718 5.82479 20.6136 5.55492C20.474 5.29435 20.1577 5.23851 19.9064 5.38741L18.6407 6.12259V4.83835C18.6407 4.54986 18.4453 4.33582 18.1848 4.33582C17.887 4.33582 17.7102 4.54986 17.7102 4.86627L17.7008 6.67165L14.9277 8.30021L14.9556 5.06169L16.5283 4.1497C16.7889 3.9915 16.8912 3.73093 16.7516 3.47967C16.6121 3.24701 16.3329 3.19118 16.0909 3.33077L14.9648 3.98219L14.9741 2.56767C14.9741 2.25126 14.7788 2 14.4716 2C14.1552 2 13.9691 2.25126 13.9691 2.56767L13.9784 3.98219L12.8524 3.33077C12.6104 3.19118 12.3219 3.24701 12.1916 3.47967C12.0521 3.73093 12.1545 3.9915 12.415 4.1497L13.9878 5.06169L14.0156 8.30021L11.2331 6.67165L11.2238 4.86627C11.2238 4.54986 11.0564 4.33582 10.7586 4.33582C10.4979 4.33582 10.3025 4.54986 10.3025 4.83835V6.12259L9.03691 5.38741C8.78564 5.23851 8.46923 5.29435 8.32964 5.55492C8.17144 5.82479 8.27381 6.11328 8.56229 6.28079L9.8093 6.98805L8.68328 7.63948C8.45062 7.76976 8.34826 8.04894 8.47854 8.2909C8.63674 8.53286 8.91592 8.57939 9.16719 8.43049L10.7492 7.51849L13.5411 9.10053L10.7771 10.6733L9.19511 9.77054C8.93454 9.62164 8.64605 9.65889 8.50646 9.91015C8.37618 10.1428 8.46923 10.422 8.71119 10.5616L9.83723 11.213L8.5716 11.9389C8.29242 12.0878 8.17144 12.3856 8.32964 12.6554C8.47854 12.9253 8.79495 12.9626 9.07413 12.8043L10.3212 12.0692L10.3305 13.3627C10.3305 13.6233 10.5259 13.856 10.7864 13.856C11.0749 13.8466 11.2518 13.6233 11.2518 13.3348V11.5201L14.0156 9.90086L13.9878 13.1208L12.4243 14.0327C12.1638 14.1909 12.0521 14.4515 12.201 14.7028C12.3312 14.9354 12.6197 14.9912 12.8617 14.8517L13.9784 14.2096L13.9691 15.6334C13.9691 15.9498 14.1552 16.2011 14.4716 16.2011C14.7788 16.2011 14.9741 15.9498 14.9741 15.6334L14.9648 14.2096L16.0816 14.8517C16.3236 14.9912 16.6027 14.9354 16.7423 14.7028C16.8912 14.4515 16.7796 14.1909 16.519 14.0327L14.9556 13.1208L14.9277 9.90086L17.6822 11.5201V13.3348C17.6822 13.6233 17.8684 13.8466 18.1569 13.856C18.4174 13.856 18.6129 13.6233 18.6129 13.3627L18.6222 12.0692L19.8692 12.8043C20.1484 12.9626 20.4555 12.9253 20.6136 12.6554C20.7718 12.3856 20.6509 12.0878 20.3717 11.9389Z" fill="white"/>
</svg>
